<mxfile host="app.diagrams.net" modified="2024-01-10T22:43:28.381Z" agent="Mozilla/5.0 (X11; Linux x86_64) AppleWebKit/537.36 (KHTML, like Gecko) Chrome/120.0.0.0 Safari/537.36" version="22.1.18" etag="_2te-XOcHd5TObv2_-vA" type="github">
  <diagram name="Page-1" id="kjoJ8V7yvlf2Qc_pYtfV">
    <mxGraphModel>
      <root>
        <mxCell id="0" />
        <mxCell id="1" parent="0" />
      </root>
    </mxGraphModel>
  </diagram>
</mxfile>
